# xmcd
#
# Track frame offsets:
# 150
# 6246
# 20487
# 38952
# 52524
# 74595
# 92625
# 107316
# 124815
# 142998
# 157935
# 169101
# 177708
# 195930
#
# Disc length: 2864 seconds
#
#
# Revision: 0
# Processed by: cddbd v1.5.1PL2 Copyright (c) Steve Scherf et al.
# Submitted via: FreeRIP 2.944 
#
DISCID=ad0b2e0e
DTITLE=Várias Bandas de Rock - Rock 80
DYEAR=2000
DGENRE=Rock
TTITLE0=Garotos do Subúrbio - Inocentes
TTITLE1=Gritos na Multidão - Ira!
TTITLE2=Contato - Heróis da Resistência
TTITLE3=Bete Morreu - Camisa de Vênus
TTITLE4=Preciso Dizer que Te Amo - Léo Jaime
TTITLE5=Pânico em São Paulo - Inocentes
TTITLE6=Envelheço na Cidade - Ira!
TTITLE7=Dublê de Corpo - Heróis da Resistência
TTITLE8=Simca Chambord - Camisa de Vênus
TTITLE9=Mina - Léo Jaime
TTITLE10=Não Acordem a Cidade - Inocentes
TTITLE11=Flores em Você - Ira!
TTITLE12=Só pro Meu Prazer - Heróis da Resistência
TTITLE13=Sílvia - Camisa  de Vênus
EXTD=
EXTT0=
EXTT1=
EXTT2=
EXTT3=
EXTT4=
EXTT5=
EXTT6=
EXTT7=
EXTT8=
EXTT9=
EXTT10=
EXTT11=
EXTT12=
EXTT13=
PLAYORDER=
